<svg width="8" height="11" viewBox="0 0 8 11" fill="none" xmlns="http://www.w3.org/2000/svg">
<path d="M0 11.0001H8V9.03577C7.99915 8.30668 7.70388 7.60769 7.17896 7.09214C6.65405 6.5766 5.94235 6.2866 5.2 6.28577H2.8C2.05765 6.2866 1.34595 6.5766 0.821037 7.09214C0.296118 7.60769 0.000846945 8.30668 0 9.03577V11.0001Z" fill="#403A4B" fill-opacity="0.6"/>
<path d="M1.19984 2.75C1.19984 3.2939 1.36406 3.82559 1.67173 4.27782C1.9794 4.73006 2.4167 5.08253 2.92833 5.29068C3.43996 5.49882 4.00295 5.55328 4.5461 5.44717C5.08924 5.34106 5.58816 5.07914 5.97974 4.69455C6.37133 4.30995 6.638 3.81995 6.74604 3.2865C6.85408 2.75305 6.79863 2.20012 6.58671 1.69762C6.37478 1.19513 6.0159 0.765633 5.55544 0.463459C5.09498 0.161285 4.55363 0 3.99984 0C3.25724 0 2.54505 0.289732 2.01995 0.805457C1.49484 1.32118 1.19984 2.02066 1.19984 2.75Z" fill="#403A4B" fill-opacity="0.6"/>
</svg>
